<svg width="64" height="69" viewBox="0 0 64 69" fill="none" xmlns="http://www.w3.org/2000/svg">
<path d="M1.00646 30.8555L0.456341 30.5104L2.08201 27.9185L2.63213 28.2636L2.02613 29.2298L4.63189 30.8641L4.21822 31.5237L1.61246 29.8893L1.00646 30.8555Z" fill="black"/>
<path d="M5.55779 27.576L4.29467 26.5868L4.77242 25.9767L6.97215 27.6993L6.51346 28.2851L6.1139 27.9722L6.09595 27.9951C6.18597 28.1457 6.22488 28.3094 6.21271 28.4862C6.20127 28.6621 6.13089 28.8326 6.00154 28.9978C5.8864 29.1448 5.75168 29.248 5.59737 29.3074C5.44306 29.3668 5.27965 29.3797 5.10715 29.3463C4.93539 29.3119 4.76321 29.2279 4.5906 29.0943L3.19 27.9974L3.66775 27.3874L4.95952 28.3989C5.09011 28.4997 5.22004 28.5452 5.34929 28.5355C5.47855 28.5258 5.58841 28.4632 5.67888 28.3477C5.73645 28.2742 5.77357 28.1924 5.79025 28.1022C5.80597 28.0114 5.79574 27.9202 5.75957 27.8287C5.72413 27.7363 5.65688 27.652 5.55779 27.576Z" fill="black"/>
<path d="M6.44225 24.167L6.86763 24.5643L5.69058 25.8245L5.2652 25.4272L6.44225 24.167ZM7.57645 27.0458L5.38707 25.0009C5.23908 24.8626 5.14324 24.7192 5.09956 24.5705C5.05671 24.421 5.05809 24.2729 5.10371 24.1264C5.14934 23.9798 5.23216 23.8423 5.35218 23.7138C5.4333 23.627 5.51403 23.5539 5.59437 23.4945C5.67554 23.4342 5.73799 23.3914 5.78174 23.3658L6.11276 23.8642C6.08497 23.8797 6.05267 23.901 6.01584 23.928C5.97983 23.9541 5.94611 23.984 5.91465 24.0177C5.83684 24.101 5.80212 24.1772 5.81049 24.2464C5.81797 24.3148 5.85627 24.3813 5.9254 24.4458L8.10414 26.4809L7.57645 27.0458Z" fill="black"/>
<path d="M8.04474 22.6377L8.4429 23.0623L7.21557 24.2133L6.81741 23.7887L8.04474 22.6377ZM6.63816 23.0391L7.20339 22.5091L8.98517 24.4091C9.03411 24.4613 9.08023 24.4945 9.12353 24.5088C9.16599 24.5221 9.20677 24.5213 9.24586 24.5063C9.28583 24.4904 9.32484 24.4646 9.36287 24.4289C9.38941 24.4041 9.41387 24.377 9.43626 24.3477C9.45782 24.3175 9.47444 24.2944 9.4861 24.2785L9.96943 24.6157C9.94942 24.6511 9.91915 24.6986 9.87863 24.7582C9.83894 24.8187 9.78363 24.8847 9.7127 24.9562C9.58145 25.0893 9.44503 25.1831 9.30344 25.2378C9.16273 25.2916 9.023 25.3013 8.88427 25.2668C8.74554 25.2323 8.61399 25.1478 8.48961 25.0134L6.63816 23.0391Z" fill="black"/>
<path d="M10.9487 21.2893L10.4206 21.765C10.3734 21.7251 10.319 21.6986 10.2575 21.6856C10.1952 21.6716 10.1294 21.6736 10.06 21.6915C9.99086 21.7078 9.92116 21.7439 9.85092 21.7997C9.75696 21.8744 9.69355 21.9574 9.66071 22.0486C9.62711 22.1388 9.63635 22.2167 9.68843 22.2822C9.72994 22.3344 9.78592 22.3619 9.85636 22.3648C9.9268 22.3676 10.0215 22.3396 10.1404 22.2807L10.5996 22.0457C10.8469 21.9203 11.0613 21.8645 11.2427 21.8782C11.4241 21.892 11.5774 21.9777 11.7027 22.1353C11.8167 22.2786 11.8744 22.4379 11.876 22.6133C11.8785 22.7879 11.8308 22.9637 11.733 23.1407C11.6353 23.316 11.4916 23.4791 11.3017 23.63C11.0122 23.8602 10.7337 23.9834 10.466 23.9994C10.1986 24.0138 9.9671 23.9283 9.77163 23.7429L10.3433 23.2372C10.4315 23.3111 10.5287 23.3438 10.635 23.3352C10.7405 23.3257 10.8474 23.2779 10.9556 23.1918C11.0619 23.1073 11.1311 23.019 11.1632 22.9268C11.1955 22.833 11.186 22.7529 11.1349 22.6867C11.0902 22.6324 11.0311 22.6058 10.9576 22.6069C10.8833 22.6071 10.7912 22.6354 10.6812 22.6919L10.2425 22.9176C9.99498 23.0447 9.77713 23.0971 9.58894 23.0747C9.40171 23.0517 9.24318 22.9585 9.11337 22.7952C9.00166 22.6548 8.9434 22.5036 8.93857 22.3416C8.9347 22.1789 8.98016 22.015 9.07496 21.8497C9.17071 21.6837 9.31207 21.5264 9.49906 21.3777C9.77526 21.158 10.039 21.0436 10.2904 21.0343C10.5427 21.0242 10.7621 21.1093 10.9487 21.2893Z" fill="black"/>
<path d="M13.7691 21.7743L11.8621 18.5742L12.5387 18.171L14.1133 20.8133L15.4853 19.9957L15.8177 20.5536L13.7691 21.7743Z" fill="black"/>
<path d="M18.246 16.7404L17.521 17.0707C17.465 16.9829 17.4 16.9119 17.326 16.8577C17.2515 16.8024 17.1704 16.7633 17.0828 16.7406C16.9952 16.7179 16.9031 16.7119 16.8067 16.7225C16.7114 16.7326 16.6151 16.7598 16.518 16.804C16.3426 16.8839 16.2096 16.9971 16.1191 17.1436C16.0281 17.289 15.9844 17.4608 15.9881 17.659C15.9912 17.8561 16.0463 18.0722 16.1534 18.3073C16.2635 18.549 16.3919 18.7357 16.5385 18.8674C16.6862 18.9987 16.8443 19.0766 17.0127 19.1011C17.1812 19.1257 17.3509 19.099 17.5219 19.0211C17.618 18.9774 17.701 18.9242 17.7711 18.8616C17.8423 18.7985 17.8989 18.7281 17.9408 18.6504C17.9821 18.5716 18.0077 18.4873 18.0175 18.3976C18.0283 18.3074 18.0214 18.2133 17.9968 18.1152L18.7233 17.7883C18.7754 17.9524 18.7969 18.1239 18.7877 18.3026C18.7791 18.4798 18.7378 18.6538 18.6638 18.8248C18.5904 18.9942 18.4821 19.1514 18.339 19.2965C18.1965 19.4401 18.0166 19.5613 17.7992 19.6604C17.4968 19.7981 17.1952 19.8528 16.8945 19.8246C16.5949 19.7958 16.3171 19.6832 16.061 19.4867C15.8061 19.2897 15.5946 19.0069 15.4267 18.6383C15.2583 18.2686 15.1846 17.9224 15.2055 17.5997C15.2264 17.2771 15.3252 16.9936 15.5017 16.7493C15.6777 16.5038 15.9147 16.3133 16.2127 16.1775C16.4091 16.0881 16.6038 16.0327 16.7966 16.0115C16.9906 15.9898 17.1769 16.0022 17.3553 16.0488C17.5333 16.0943 17.6978 16.1746 17.8488 16.2897C18.001 16.4043 18.1334 16.5546 18.246 16.7404Z" fill="black"/>
<path d="M21.0372 15.5656C20.9788 15.4302 20.8847 15.3405 20.7548 15.2966C20.625 15.2527 20.47 15.2594 20.2898 15.3169C20.1673 15.3559 20.0694 15.4061 19.9961 15.4677C19.9224 15.528 19.8726 15.5955 19.8467 15.6699C19.8219 15.744 19.8217 15.8191 19.846 15.8954C19.8639 15.9597 19.8949 16.0109 19.9388 16.0491C19.984 16.0869 20.0381 16.1148 20.1011 16.1329C20.1638 16.1499 20.2332 16.1602 20.3095 16.1639C20.3854 16.1665 20.4648 16.1641 20.5478 16.1567L20.891 16.1314C21.0568 16.1167 21.2137 16.1177 21.3615 16.1342C21.5093 16.1508 21.644 16.1861 21.7656 16.2403C21.8872 16.2945 21.9923 16.3705 22.0807 16.4683C22.1703 16.5658 22.2392 16.6883 22.2875 16.8358C22.3555 17.0534 22.3601 17.2594 22.3011 17.4538C22.2429 17.6467 22.125 17.8198 21.9473 17.9731C21.7704 18.1249 21.5375 18.2469 21.2486 18.3389C20.9621 18.4301 20.6985 18.4657 20.4579 18.4457C20.2185 18.4252 20.0119 18.3478 19.838 18.2136C19.6649 18.0778 19.5349 17.8832 19.4477 17.6297L20.1739 17.3983C20.2199 17.5148 20.2857 17.6033 20.3712 17.6639C20.4574 17.7229 20.5578 17.7565 20.6724 17.7645C20.7877 17.7711 20.9101 17.7537 21.0395 17.7125C21.1666 17.672 21.2711 17.6184 21.3529 17.5516C21.4359 17.4844 21.4929 17.4096 21.5239 17.3272C21.5549 17.2448 21.5568 17.1608 21.5295 17.0753C21.5041 16.9956 21.4591 16.9361 21.3944 16.8969C21.3309 16.8573 21.248 16.8328 21.1458 16.8234C21.0446 16.8136 20.9244 16.8137 20.7851 16.8238L20.3676 16.8498C20.0452 16.8724 19.7727 16.8338 19.55 16.7342C19.3274 16.6346 19.1749 16.4534 19.0925 16.1908C19.0229 15.9762 19.0202 15.7703 19.0846 15.5728C19.1502 15.3751 19.2703 15.1987 19.4449 15.0438C19.6195 14.8889 19.8363 14.7702 20.0951 14.6878C20.3585 14.6039 20.6028 14.5757 20.828 14.6032C21.0543 14.6304 21.2479 14.7068 21.4088 14.8325C21.5697 14.9581 21.6856 15.1261 21.7564 15.3365L21.0372 15.5656Z" fill="black"/>
<path d="M23.8032 14.4168L23.697 13.7762L26.7154 13.276L26.8216 13.9166L25.6964 14.1031L26.1993 17.1376L25.4313 17.2649L24.9284 14.2304L23.8032 14.4168Z" fill="black"/>
<path d="M29.2794 15.6483L29.1803 14.047L29.9537 13.9991L30.1264 16.7877L29.3838 16.8337L29.3525 16.3272L29.3234 16.329C29.2706 16.4963 29.174 16.6341 29.0337 16.7424C28.8946 16.8506 28.7204 16.9112 28.511 16.9242C28.3246 16.9358 28.158 16.9036 28.0111 16.8276C27.8643 16.7517 27.7461 16.6381 27.6565 16.4869C27.5682 16.3356 27.5167 16.1511 27.502 15.9333L27.392 14.1578L28.1654 14.1099L28.2668 15.7474C28.2782 15.912 28.3305 16.0394 28.4235 16.1296C28.5166 16.2198 28.6363 16.2604 28.7828 16.2513C28.876 16.2455 28.9618 16.2189 29.0403 16.1716C29.1187 16.123 29.1801 16.0548 29.2244 15.967C29.27 15.8791 29.2884 15.7729 29.2794 15.6483Z" fill="black"/>
<path d="M32.3916 14.0396L32.3784 14.6216L30.6963 14.5834L30.7094 14.0015L32.3916 14.0396ZM31.1065 13.3409L31.8812 13.3585L31.8222 15.9626C31.8205 16.0341 31.8302 16.0902 31.8511 16.1307C31.872 16.17 31.9017 16.1979 31.9402 16.2146C31.9798 16.2312 32.0257 16.2401 32.0778 16.2413C32.1142 16.2422 32.1507 16.2399 32.1872 16.2347C32.2237 16.2283 32.2517 16.2234 32.2712 16.2202L32.38 16.7995C32.3409 16.8107 32.286 16.8234 32.2153 16.8376C32.1446 16.853 32.0589 16.8613 31.9582 16.8627C31.7714 16.8657 31.6083 16.8372 31.4689 16.777C31.3308 16.7169 31.2243 16.6259 31.1494 16.5041C31.0746 16.3823 31.0398 16.2299 31.0452 16.0469L31.1065 13.3409Z" fill="black"/>
<path d="M34.1498 17.0398C33.8689 17.0098 33.6323 16.9241 33.4401 16.7828C33.2492 16.6404 33.1098 16.456 33.0218 16.2295C32.934 16.0018 32.9053 15.7456 32.9357 15.4611C32.9665 15.1741 33.0488 14.9292 33.1827 14.7265C33.3167 14.5225 33.492 14.3717 33.7085 14.2742C33.9264 14.1755 34.1758 14.1413 34.4568 14.1713C34.7377 14.2014 34.9736 14.2876 35.1645 14.43C35.3567 14.5713 35.4967 14.7558 35.5846 14.9835C35.6725 15.21 35.7011 15.4667 35.6704 15.7537C35.64 16.0383 35.5577 16.2825 35.4237 16.4865C35.2898 16.6893 35.1139 16.84 34.896 16.9386C34.6795 17.0362 34.4307 17.0699 34.1498 17.0398ZM34.2173 16.4434C34.3451 16.4571 34.4557 16.4323 34.549 16.3691C34.6425 16.3047 34.7177 16.2116 34.7747 16.0896C34.8328 15.9678 34.8706 15.8261 34.8879 15.6645C34.9052 15.5029 34.8983 15.3564 34.8672 15.2251C34.8373 15.0938 34.7835 14.9868 34.7058 14.9041C34.6281 14.8214 34.5253 14.7732 34.3975 14.7595C34.2685 14.7457 34.156 14.7709 34.0601 14.835C33.9654 14.8993 33.889 14.9923 33.8308 15.1141C33.7739 15.2361 33.7368 15.3779 33.7195 15.5394C33.7022 15.701 33.7085 15.8474 33.7383 15.9787C33.7694 16.1101 33.8244 16.2172 33.9033 16.3C33.9836 16.3818 34.0883 16.4296 34.2173 16.4434Z" fill="black"/>
<path d="M36.1154 17.2488L36.6506 14.5066L37.3879 14.6505L37.2946 15.129L37.3231 15.1346C37.4063 14.9741 37.5153 14.8619 37.6501 14.7981C37.7851 14.733 37.9294 14.7154 38.0829 14.7454C38.121 14.7528 38.1616 14.7632 38.2047 14.7766C38.2478 14.7899 38.2852 14.804 38.3169 14.8188L38.1852 15.4937C38.1516 15.476 38.1041 15.4568 38.0426 15.4362C37.9812 15.4156 37.9243 15.4001 37.8719 15.3899C37.76 15.3681 37.6553 15.373 37.5577 15.4046C37.4615 15.4352 37.3795 15.4884 37.3116 15.5641C37.2449 15.6401 37.2006 15.734 37.1788 15.8458L36.876 17.3973L36.1154 17.2488Z" fill="black"/>
<path d="M38.226 17.6909L38.9172 14.9838L39.668 15.1755L38.9768 17.8826L38.226 17.6909ZM39.3835 14.7312C39.2719 14.7027 39.1856 14.6412 39.1246 14.5468C39.0651 14.4515 39.0487 14.3516 39.0754 14.247C39.1018 14.1436 39.1638 14.0649 39.2614 14.011C39.3605 13.9562 39.4659 13.9431 39.5775 13.9716C39.6891 14.0001 39.7747 14.062 39.8342 14.1573C39.8952 14.2517 39.9125 14.3506 39.8861 14.454C39.8594 14.5586 39.7965 14.6383 39.6974 14.693C39.5997 14.747 39.4951 14.7597 39.3835 14.7312Z" fill="black"/>
<path d="M40.9129 16.7675L40.3969 18.2981L39.6626 18.0506L40.5552 15.403L41.255 15.6389L41.0975 16.1061L41.1285 16.1165C41.2391 15.9823 41.3784 15.8936 41.5465 15.8505C41.715 15.8062 41.8975 15.8171 42.094 15.8834C42.2778 15.9454 42.4246 16.0396 42.5342 16.1662C42.6438 16.2927 42.7114 16.4435 42.7369 16.6184C42.7627 16.7922 42.741 16.982 42.6716 17.1877L42.1033 18.8734L41.3691 18.6258L41.8932 17.0711C41.949 16.9095 41.9502 16.7691 41.8969 16.6501C41.844 16.5298 41.7441 16.445 41.597 16.3954C41.4981 16.362 41.4037 16.3539 41.3135 16.3708C41.2244 16.3881 41.1449 16.4304 41.0749 16.4977C41.0064 16.5642 40.9524 16.6541 40.9129 16.7675Z" fill="black"/>
<path d="M43.465 20.6712C43.2368 20.5666 43.0556 20.4455 42.9212 20.3079C42.7874 20.1719 42.6971 20.0284 42.6502 19.8775C42.6033 19.7266 42.5961 19.5779 42.6286 19.4314L43.3203 19.6424C43.3169 19.7022 43.3266 19.764 43.3493 19.8278C43.3721 19.8916 43.4127 19.9529 43.4712 20.0117C43.5302 20.0721 43.6109 20.1258 43.7135 20.1727C43.8667 20.243 44.0101 20.2633 44.1437 20.2338C44.2778 20.206 44.3848 20.1049 44.4647 19.9308L44.6776 19.4661L44.6479 19.4525C44.5847 19.5089 44.5078 19.5543 44.4173 19.5889C44.3267 19.6234 44.2239 19.6383 44.1087 19.6335C43.9935 19.6288 43.8686 19.5956 43.7341 19.5339C43.5434 19.4465 43.39 19.3228 43.2739 19.1629C43.1594 19.0024 43.0977 18.8094 43.089 18.5839C43.0819 18.3579 43.1428 18.1043 43.2716 17.8232C43.4035 17.5355 43.5605 17.3167 43.7426 17.1667C43.9247 17.0167 44.1155 16.9294 44.3148 16.9047C44.5153 16.8806 44.7087 16.9112 44.895 16.9966C45.0372 17.0617 45.1452 17.1406 45.2189 17.233C45.2931 17.3244 45.3429 17.4193 45.3685 17.5177C45.3957 17.6155 45.4096 17.706 45.4103 17.789L45.4367 17.8011L45.6323 17.3745L46.3317 17.695L45.1563 20.2597C45.0573 20.4758 44.9215 20.6323 44.749 20.7294C44.5764 20.8264 44.3798 20.8683 44.159 20.8552C43.9389 20.8437 43.7076 20.7823 43.465 20.6712ZM44.1999 19.1071C44.3134 19.1591 44.4222 19.175 44.5263 19.1546C44.6319 19.1337 44.7299 19.0799 44.8203 18.9932C44.9123 18.906 44.9924 18.788 45.0606 18.6392C45.1288 18.4904 45.167 18.3518 45.1751 18.2234C45.1838 18.094 45.1623 17.9808 45.1107 17.8838C45.0591 17.7868 44.9766 17.7122 44.863 17.6602C44.7473 17.6071 44.6353 17.5938 44.5271 17.6203C44.4195 17.6457 44.32 17.7041 44.2287 17.7957C44.1374 17.8872 44.0586 18.0052 43.9924 18.1496C43.9252 18.2962 43.8875 18.4323 43.8793 18.558C43.8727 18.683 43.8951 18.7927 43.9466 18.8869C43.9997 18.9807 44.0841 19.054 44.1999 19.1071Z" fill="black"/>
<path d="M45.8496 42.761C44.5915 44.7933 43.2044 44.6867 42.4382 44.4044C41.1997 46.0144 38.8904 47.2704 36.9943 47.5576C36.986 47.8347 36.9599 48.115 36.9183 48.3966C39.5124 50.3322 41.9543 55.1712 42.4382 56.139C42.9221 57.1068 42.9221 58.8004 42.6802 60.1311C42.4382 61.4618 38.1072 62.3019 37.2363 61.8248C36.72 61.5419 36.2286 60.7292 36.2685 60.1311C36.4621 57.2277 35.053 55.0502 34.3243 54.3243C33.9144 54.9215 33.5256 55.4196 33.2167 55.776C33.9051 58.9602 34.1472 61.0811 33.4861 64.6072C32.9054 67.7041 30.4858 68.2297 29.397 68.2297C26.4936 68.5926 25.7034 67.5106 25.6227 66.9057C25.0931 65.3169 25.2523 62.8574 25.5944 60.7292C24.9497 61.0717 23.7524 61.2906 22.9613 61.4038V65.696C23.1064 67.1409 21.8966 67.9877 21.0257 68.1155H17.2755C16.4044 68.1155 15.4849 66.9057 15.3728 66.1799V60.4672C15.0174 60.3523 14.6973 60.2382 14.4218 60.1311C14.2637 61.658 13.9772 63.0044 13.7672 63.7604C13.2833 69.18 8.96853 67.6316 6.87163 66.1799C4.93604 65.2121 6.06513 61.5022 6.87163 59.7682C4.81475 56.1032 4.45181 52.9705 4.99291 50.4036C3.2424 49.6063 1.42779 46.7029 4.33118 44.7673C4.16988 43.6382 4.25858 41.622 6.87163 41.622V42.825L6.29086 43.6718L5.17799 44.2834L4.33118 44.7673C4.27932 45.8561 4.2637 48.324 5.58408 48.5175C6.85579 45.5023 9.35973 43.5003 11.2461 42.5898C8.88844 39.0361 9.58116 34.9589 10.5009 32.9118C14.296 26.9155 19.2817 27.3731 22.5984 28.9973C31.9134 17.1851 42.1963 25.4114 45.2206 31.2181C45.3416 31.2181 45.0997 32.9118 50.0596 31.4601C54.0276 30.2987 53.4872 26.2985 52.7211 24.4436C52.6807 23.758 53.084 22.6289 55.0196 23.5967C56.9552 24.5645 57.4391 27.7905 57.4391 29.2825C56.5505 40.4298 50.2144 42.5697 45.8496 42.761Z" fill="#C1C3BC"/>
<path d="M24.8969 30.4923C24.2966 29.9791 23.5106 29.4441 22.5984 28.9973M22.5984 28.9973C19.2817 27.3731 14.296 26.9155 10.5009 32.9118C9.58116 34.9589 8.88845 39.0361 11.2461 42.5898M22.5984 28.9973C31.9134 17.1851 42.1963 25.4114 45.2206 31.2181C45.3416 31.2181 45.0997 32.9118 50.0596 31.4601C54.0276 30.2987 53.4872 26.2985 52.7211 24.4436C52.6807 23.758 53.084 22.6289 55.0196 23.5967C56.9552 24.5645 57.4391 27.7905 57.4391 29.2825C56.1084 45.9771 42.5592 42.4688 41.7124 42.4688C40.9381 42.4688 44.5592 42.8819 45.8496 42.761C44.5915 44.7933 43.2044 44.6867 42.4382 44.4044C41.1997 46.0144 38.8904 47.2704 36.9943 47.5576M11.2461 42.5898C12.0929 43.8662 13.7672 45.7646 15.7028 46.461C19.7191 47.9059 20.6869 48.6318 23.2032 50.5741C25.2839 51.7771 29.5665 50.5741 30.3408 46.7029C31.7925 47.5576 34.4455 47.9437 36.9943 47.5576M11.2461 42.5898C9.35973 43.5003 6.85579 45.5023 5.58408 48.5175M14.4218 60.1311C14.2637 61.658 13.9772 63.0044 13.7672 63.7604C13.2833 69.18 8.96853 67.6316 6.87163 66.1799C4.93604 65.2121 6.06513 61.5022 6.87163 59.7682C4.81475 56.1032 4.45181 52.9705 4.99291 50.4036M14.4218 60.1311C14.5673 58.7258 14.3621 56.9256 14.1301 55.5341C14.2843 56.7035 14.7519 59.4537 14.4218 60.1311ZM14.4218 60.1311C14.6973 60.2382 15.0174 60.3523 15.3728 60.4672M33.2167 55.776C33.9051 58.9602 34.1472 61.0811 33.4861 64.6072C32.9054 67.7041 30.4858 68.2297 29.397 68.2297C26.4936 68.5926 25.7034 67.5106 25.6227 66.9057C24.7517 64.2927 25.7437 59.3246 26.3486 57.3487C25.8888 58.5517 25.7154 60.205 25.5944 60.7292C24.9497 61.0717 23.7524 61.2906 22.9613 61.4038M33.2167 55.776C33.1493 55.4644 32.9567 54.6587 32.8812 54.3243L33.2167 55.776ZM33.2167 55.776C33.5256 55.4196 33.9144 54.9215 34.3243 54.3243M36.9943 47.5576C36.986 47.8347 36.9598 48.115 36.9183 48.3966M34.3243 54.3243C35.053 55.0502 36.4621 57.2277 36.2685 60.1311C36.2286 60.7292 36.72 61.5419 37.2363 61.8248C38.1072 62.3019 42.4382 61.4618 42.6802 60.1311C42.9221 58.8004 42.9221 57.1068 42.4382 56.139C41.9543 55.1712 39.5124 50.3322 36.9183 48.3966M34.3243 54.3243C35.3916 52.7694 36.602 50.5426 36.9183 48.3966M15.3728 60.4672V66.1799C15.4849 66.9057 16.4044 68.1155 17.2755 68.1155C18.1465 68.1155 20.1385 68.1155 21.0257 68.1155C21.8966 67.9877 23.1064 67.1409 22.9613 65.696C22.9613 64.8424 22.9613 62.7123 22.9613 61.4038M15.3728 60.4672C17.3477 61.1056 20.4108 61.7688 22.9613 61.4038M4.99291 50.4036C3.2424 49.6063 1.42779 46.7029 4.33118 44.7673M4.99291 50.4036C5.13353 49.7365 5.33521 49.1076 5.58408 48.5175M4.33118 44.7673C4.27932 45.8561 4.2637 48.324 5.58408 48.5175M4.33118 44.7673C4.16988 43.6382 4.25858 41.622 6.87163 41.622V42.825L6.29086 43.6718L5.17799 44.2834L4.33118 44.7673Z" stroke="black" stroke-width="0.725849"/>
<path d="M36.752 31.8229C35.9777 31.5326 35.5019 33.1537 35.6632 34.0005C36.1068 33.5972 36.51 33.1537 36.9758 32.9117C37.3153 32.7354 37.7198 32.1859 36.752 31.8229Z" fill="black" stroke="black" stroke-width="0.24195"/>
<ellipse cx="38.9302" cy="36.904" rx="1.4517" ry="1.57267" fill="black"/>
<path d="M54.2939 8.11203C59.6168 8.35396 60.2217 14.5237 56.1086 17.0642L56.0481 18.8788H54.173H52.4793V17.0642C47.2774 13.4349 50.3018 8.11206 54.2939 8.11203Z" fill="#FFCC01"/>
<path d="M54.173 16.4593V18.8788M54.173 16.4593C53.3261 16.3383 53.4471 15.6125 53.4471 15.2495C53.4471 14.9592 52.5196 14.5237 52.2374 14.4027M54.173 16.4593C54.4552 16.3786 55.0198 16.0964 55.0198 15.6125C55.0198 14.935 55.3424 14.7656 55.5037 14.7656L55.8666 14.4027L56.9554 14.2817C57.5199 13.9188 58.3103 12.9268 56.9554 11.8623C56.6949 11.3785 55.9673 10.6542 55.0198 11.3062M54.173 18.8788H56.0481L56.1086 17.0642C60.2217 14.5237 59.6168 8.35396 54.2939 8.11203C50.3018 8.11206 47.2774 13.4349 52.4793 17.0642V18.8788H54.173ZM55.0198 11.3062C54.9406 11.3606 54.8599 11.4247 54.7778 11.4993L55.0198 11.3062ZM55.0198 11.3062C54.5359 10.8463 53.5681 10.3864 53.5681 12.2252V11.0154C53.0842 10.8541 52.068 10.8945 51.8744 12.3462M51.8744 12.3462C51.3502 12.5881 50.8099 13.5075 51.8744 14.2817M51.8744 12.3462C52.318 12.5075 53.0842 12.6365 52.6003 11.8623M51.9954 13.193C52.2451 13.349 52.7606 13.5244 53.2052 13.2816M53.6891 12.951H53.5681C53.4587 13.1041 53.335 13.2107 53.2052 13.2816M53.2052 13.2816L53.4471 14.0398M54.2939 13.5559C54.4338 13.4679 54.6464 13.2624 54.7823 12.951M54.8988 12.1042C54.9396 12.44 54.8814 12.7237 54.7823 12.951M54.2939 12.4671L54.7823 12.951M56.5925 11.4993C56.6175 11.6745 56.5928 12.005 56.4086 12.3462M55.8666 12.951C56.1237 12.7674 56.2959 12.5548 56.4086 12.3462M55.8666 11.7413C55.7844 12.034 55.7776 12.5647 56.4086 12.3462M56.9554 12.7091C57.1191 13.1123 57.1668 13.8462 56.0481 13.5559M53.6891 14.4027C53.813 14.8866 54.2051 15.5641 54.7823 14.4027M54.8988 14.0398C54.9414 13.9119 55.0268 13.73 55.1408 13.6155M55.5037 13.5559C55.3668 13.4646 55.2424 13.5132 55.1408 13.6155M55.1408 13.6155C55.423 13.7972 55.9392 14.185 55.7456 14.2817M47.0354 15.1286L48.3662 14.7656M45.3418 13.193H48.2452M47.0354 11.1364L48.3662 11.6203M46.5515 8.71691L48.971 10.1686M48.8501 7.87008L49.9388 8.95886M49.6969 5.45059L51.2696 7.87008M52.2374 5.93449L52.6003 7.38619M54.2939 4.36182V7.26521M56.2295 5.93449L55.7456 7.38619M58.77 5.45059L57.1973 8.11203M59.6168 7.87008L58.528 8.95886M61.9153 8.71691L59.3749 10.2896M59.9797 11.6203L61.5524 11.1364M60.2217 13.193H63.2461M59.9797 14.7656L61.5524 15.1286" stroke="black" stroke-width="0.483899"/>
<path d="M56.0119 20.4448C55.7699 22.7433 52.6246 22.2594 52.4795 20.4448V18.8789H54.1731H56.0483L56.0119 20.4448Z" fill="white"/>
<path d="M53.2053 19.9677H54.2336H55.2619M53.4473 20.6935H55.02M52.4795 20.4448C52.6246 22.2594 55.7699 22.7433 56.0119 20.4448L56.0483 18.8789H54.1731H52.4795V20.4448Z" stroke="black" stroke-width="0.483899"/>
</svg>
