<svg width="262" height="284" viewBox="0 0 262 284" fill="none" xmlns="http://www.w3.org/2000/svg">
<path d="M5.40062 128.309L3.12691 126.882L9.84596 116.17L12.1197 117.596L9.615 121.589L20.3848 128.344L18.6751 131.07L7.90528 124.315L5.40062 128.309Z" fill="black"/>
<path d="M24.1255 114.879L18.9049 110.79L20.8795 108.269L29.9712 115.389L28.0754 117.809L26.424 116.516L26.3498 116.611C26.7218 117.233 26.8827 117.91 26.8323 118.641C26.7851 119.368 26.4942 120.072 25.9596 120.755C25.4837 121.363 24.9269 121.789 24.2891 122.035C23.6513 122.28 22.9759 122.334 22.263 122.196C21.5531 122.053 20.8414 121.706 20.128 121.154L14.3392 116.621L16.3138 114.099L21.6528 118.28C22.1926 118.696 22.7295 118.885 23.2638 118.845C23.798 118.805 24.2521 118.546 24.626 118.068C24.8639 117.765 25.0174 117.426 25.0863 117.054C25.1513 116.678 25.109 116.301 24.9595 115.923C24.813 115.541 24.535 115.193 24.1255 114.879Z" fill="black"/>
<path d="M27.6957 100.886L29.4538 102.528L24.589 107.736L22.8308 106.094L27.6957 100.886ZM32.3835 112.784L23.3346 104.332C22.7229 103.761 22.3268 103.168 22.1462 102.554C21.9691 101.936 21.9749 101.324 22.1634 100.718C22.352 100.112 22.6943 99.5439 23.1903 99.0128C23.5256 98.6538 23.8593 98.3517 24.1913 98.1063C24.5268 97.8573 24.785 97.68 24.9658 97.5746L26.3339 99.6343C26.219 99.6985 26.0855 99.7864 25.9333 99.898C25.7845 100.006 25.6451 100.129 25.5151 100.269C25.1935 100.613 25.05 100.928 25.0846 101.214C25.1155 101.497 25.2738 101.772 25.5595 102.038L34.5645 110.449L32.3835 112.784Z" fill="black"/>
<path d="M34.2521 94.6345L35.8978 96.3893L30.8251 101.146L29.1795 99.3914L34.2521 94.6345ZM28.4386 96.2934L30.7748 94.1026L38.139 101.956C38.3413 102.171 38.5319 102.309 38.7109 102.368C38.8864 102.423 39.0549 102.419 39.2165 102.357C39.3817 102.292 39.5429 102.185 39.7001 102.038C39.8098 101.935 39.9109 101.823 40.0034 101.702C40.0925 101.577 40.1612 101.482 40.2094 101.416L42.2071 102.81C42.1243 102.956 41.9993 103.152 41.8318 103.399C41.6677 103.649 41.4391 103.921 41.146 104.217C40.6035 104.767 40.0397 105.155 39.4544 105.381C38.8729 105.603 38.2954 105.643 37.722 105.501C37.1486 105.358 36.6049 105.009 36.0908 104.454L28.4386 96.2934Z" fill="black"/>
<path d="M46.1643 89.1393L43.9817 91.1054C43.7865 90.9404 43.5618 90.831 43.3076 90.777C43.0502 90.7191 42.7782 90.7273 42.4915 90.8016C42.2056 90.8689 41.9175 91.0179 41.6272 91.2487C41.2388 91.5576 40.9768 91.9004 40.841 92.2773C40.7022 92.6503 40.7403 92.9721 40.9556 93.2428C41.1272 93.4585 41.3585 93.5723 41.6497 93.5841C41.9408 93.596 42.3321 93.4801 42.8236 93.2365L44.7215 92.2653C45.7437 91.7469 46.6297 91.5163 47.3794 91.5733C48.1291 91.6303 48.7629 91.9844 49.2807 92.6356C49.7518 93.228 49.9905 93.8866 49.997 94.6114C50.0074 95.3331 49.8103 96.0597 49.4059 96.7912C49.0022 97.5156 48.408 98.1898 47.6235 98.8136C46.427 99.7651 45.2756 100.274 44.1694 100.34C43.064 100.4 42.1073 100.046 41.2994 99.28L43.6621 97.1899C44.0267 97.4955 44.4286 97.6305 44.8679 97.595C45.304 97.5556 45.7456 97.3581 46.1928 97.0025C46.6322 96.6531 46.9182 96.288 47.0508 95.9072C47.1843 95.5193 47.1453 95.1885 46.934 94.9147C46.7491 94.6903 46.5049 94.5804 46.2011 94.585C45.8943 94.5856 45.5135 94.7027 45.0589 94.9362L43.2456 95.869C42.2226 96.3943 41.3222 96.6108 40.5444 96.5185C39.7705 96.4231 39.1153 96.038 38.5788 95.3633C38.1171 94.7827 37.8763 94.1578 37.8564 93.4884C37.8403 92.816 38.0282 92.1383 38.42 91.4554C38.8158 90.7693 39.4001 90.119 40.1729 89.5044C41.3144 88.5967 42.4046 88.1236 43.4435 88.0851C44.4862 88.0436 45.3932 88.395 46.1643 89.1393Z" fill="black"/>
<path d="M57.6589 91.2564L49.7771 78.0299L52.5735 76.3634L59.0814 87.2844L64.7518 83.9053L66.1257 86.2109L57.6589 91.2564Z" fill="black"/>
<path d="M76.0188 70.5255L73.0221 71.8905C72.7908 71.5277 72.5222 71.2343 72.2163 71.0101C71.9083 70.7814 71.5733 70.6201 71.2111 70.5262C70.8489 70.4323 70.4685 70.4073 70.0699 70.4512C69.6759 70.493 69.2782 70.6053 68.8768 70.7882C68.1516 71.1185 67.6019 71.5864 67.2279 72.1919C66.8517 72.7928 66.6712 73.5029 66.6864 74.3221C66.6995 75.1368 66.9273 76.0299 67.3698 77.0014C67.8248 78.0003 68.3554 78.772 68.9614 79.3165C69.572 79.859 70.2254 80.181 70.9215 80.2825C71.6176 80.384 72.3191 80.2737 73.0261 79.9516C73.4229 79.7709 73.7662 79.5512 74.0559 79.2925C74.3502 79.0318 74.5839 78.7409 74.7571 78.4197C74.9281 78.0939 75.0338 77.7456 75.0742 77.3747C75.1191 77.0018 75.0906 76.6127 74.9886 76.2076L77.9915 74.8562C78.2069 75.5347 78.2956 76.2433 78.2576 76.9821C78.2221 77.7142 78.0514 78.4336 77.7454 79.1403C77.4419 79.8403 76.9945 80.4902 76.403 81.0901C75.8141 81.6833 75.0703 82.1845 74.1718 82.5938C72.9221 83.1631 71.6758 83.3893 70.4329 83.2725C69.1947 83.1536 68.0464 82.6881 66.988 81.876C65.9342 81.0617 65.0603 79.8929 64.3663 78.3695C63.6703 76.8415 63.3656 75.4107 63.452 74.0771C63.5385 72.7434 63.9465 71.5717 64.6762 70.5619C65.4037 69.5476 66.3833 68.7599 67.6148 68.199C68.4267 67.8292 69.2312 67.6004 70.0283 67.5126C70.8301 67.4228 71.5998 67.4742 72.3374 67.6669C73.073 67.8551 73.7529 68.187 74.3772 68.6627C75.006 69.1363 75.5532 69.7572 76.0188 70.5255Z" fill="black"/>
<path d="M87.3921 65.7328C87.1507 65.1732 86.7618 64.8026 86.2253 64.6211C85.6888 64.4396 85.048 64.4675 84.303 64.7048C83.7968 64.866 83.3922 65.0738 83.0893 65.3281C82.7848 65.5777 82.5789 65.8563 82.4718 66.1639C82.3694 66.4701 82.3685 66.7807 82.4689 67.0959C82.543 67.3616 82.6709 67.5734 82.8527 67.7311C83.0392 67.8874 83.2628 68.0029 83.5233 68.0777C83.7823 68.1477 84.0694 68.1904 84.3847 68.2057C84.6984 68.2163 85.0266 68.2064 85.3694 68.1761L86.7878 68.0714C87.4734 68.0108 88.1217 68.0147 88.7326 68.0831C89.3435 68.1515 89.9003 68.2977 90.4029 68.5215C90.9056 68.7454 91.3397 69.0595 91.7052 69.4638C92.0755 69.8666 92.3603 70.3729 92.5598 70.9827C92.8411 71.882 92.8598 72.7334 92.616 73.537C92.3756 74.3342 91.8881 75.0497 91.1537 75.6834C90.4225 76.3109 89.4599 76.8147 88.2661 77.1951C87.0817 77.5723 85.9924 77.7194 84.9981 77.6364C84.0085 77.5519 83.1545 77.2322 82.4359 76.6773C81.7206 76.1161 81.1829 75.3116 80.8229 74.2638L83.8243 73.3077C84.0144 73.789 84.2861 74.1548 84.6394 74.4052C84.996 74.6493 85.411 74.788 85.8845 74.8213C86.3612 74.8483 86.867 74.7766 87.4019 74.6062C87.9272 74.4388 88.3589 74.2171 88.6971 73.9411C89.04 73.6635 89.2756 73.3544 89.4037 73.0138C89.5319 72.6731 89.5397 72.3261 89.4272 71.9727C89.3222 71.6432 89.1361 71.3974 88.8688 71.2353C88.6063 71.0717 88.2636 70.9704 87.8409 70.9315C87.423 70.891 86.9261 70.8915 86.3502 70.933L84.6249 71.0407C83.2922 71.1338 82.1658 70.9745 81.2456 70.5628C80.3254 70.151 79.6951 69.4024 79.3545 68.3168C79.0668 67.4301 79.056 66.5788 79.3221 65.7628C79.5929 64.9454 80.0893 64.2165 80.8111 63.5763C81.533 62.9361 82.4288 62.4456 83.4985 62.1048C84.5873 61.758 85.597 61.6415 86.5275 61.7553C87.4628 61.8677 88.263 62.1835 88.9281 62.7028C89.5933 63.2221 90.0722 63.9164 90.3649 64.7858L87.3921 65.7328Z" fill="black"/>
<path d="M98.6205 61.0336L98.1817 58.3858L110.657 56.3183L111.096 58.9661L106.445 59.7368L108.524 72.2787L105.349 72.8048L103.271 60.2629L98.6205 61.0336Z" fill="black"/>
<path d="M121.102 66.1403L120.692 59.5221L123.889 59.3241L124.602 70.8497L121.533 71.0398L121.404 68.9463L121.284 68.9537C121.065 69.6451 120.666 70.2147 120.086 70.6624C119.512 71.1098 118.791 71.3603 117.926 71.4139C117.156 71.4616 116.467 71.3285 115.86 71.0146C115.253 70.7006 114.764 70.2312 114.394 69.6064C114.029 68.9812 113.816 68.2186 113.756 67.3184L113.301 59.9799L116.498 59.7819L116.917 66.5502C116.964 67.2302 117.18 67.7566 117.564 68.1295C117.949 68.5024 118.444 68.6701 119.049 68.6326C119.435 68.6087 119.789 68.4989 120.114 68.3031C120.438 68.1022 120.691 67.8203 120.875 67.4575C121.063 67.0943 121.139 66.6552 121.102 66.1403Z" fill="black"/>
<path d="M133.841 59.495L133.787 61.9002L126.834 61.7426L126.889 59.3375L133.841 59.495ZM128.53 56.6073L131.732 56.6799L131.488 67.4429C131.481 67.7385 131.521 67.9701 131.607 68.1375C131.694 68.2998 131.817 68.4154 131.976 68.4842C132.14 68.5531 132.329 68.59 132.545 68.5949C132.695 68.5983 132.846 68.5891 132.996 68.5675C133.147 68.5408 133.263 68.5209 133.344 68.5077L133.793 70.9017C133.632 70.9482 133.405 71.0007 133.113 71.0592C132.821 71.1228 132.467 71.1574 132.05 71.163C131.278 71.1756 130.604 71.0575 130.028 70.8088C129.457 70.5603 129.017 70.1843 128.707 69.681C128.398 69.1777 128.254 68.5477 128.276 67.7912L128.53 56.6073Z" fill="black"/>
<path d="M140.985 71.8862C139.824 71.762 138.846 71.4078 138.052 70.8238C137.263 70.2353 136.687 69.473 136.323 68.5369C135.96 67.5957 135.842 66.5371 135.968 65.361C136.095 64.1749 136.435 63.1629 136.988 62.3249C137.542 61.4819 138.267 60.8588 139.162 60.4555C140.062 60.0478 141.093 59.9061 142.254 60.0304C143.415 60.1546 144.39 60.511 145.179 61.0995C145.974 61.6835 146.552 62.4461 146.915 63.3872C147.279 64.3234 147.397 65.3845 147.27 66.5706C147.144 67.7467 146.805 68.7562 146.251 69.5992C145.697 70.4372 144.97 71.0601 144.07 71.4678C143.175 71.871 142.147 72.0105 140.985 71.8862ZM141.264 69.421C141.793 69.4775 142.25 69.3752 142.635 69.1141C143.022 68.8479 143.333 68.4628 143.568 67.9587C143.809 67.4552 143.964 66.8695 144.036 66.2017C144.107 65.5339 144.079 64.9285 143.951 64.3855C143.827 63.8431 143.605 63.4009 143.283 63.059C142.962 62.7172 142.537 62.518 142.009 62.4614C141.476 62.4044 141.011 62.5084 140.615 62.7734C140.223 63.039 139.908 63.4236 139.667 63.9272C139.432 64.4312 139.278 65.0172 139.207 65.685C139.135 66.3528 139.161 66.9579 139.285 67.5004C139.413 68.0434 139.641 68.4861 139.967 68.8285C140.299 69.1664 140.731 69.3639 141.264 69.421Z" fill="black"/>
<path d="M148.986 72.7318L151.197 61.398L154.245 61.9927L153.859 63.9702L153.977 63.9933C154.321 63.3302 154.771 62.8666 155.328 62.6025C155.887 62.3335 156.483 62.261 157.117 62.3848C157.275 62.4155 157.443 62.4585 157.621 62.5137C157.799 62.5689 157.954 62.6271 158.085 62.6885L157.54 65.4776C157.401 65.4046 157.205 65.3254 156.951 65.2401C156.697 65.1547 156.462 65.091 156.245 65.0487C155.783 64.9585 155.35 64.9787 154.946 65.1093C154.549 65.236 154.21 65.4558 153.929 65.7687C153.654 66.0826 153.471 66.4707 153.38 66.9331L152.129 73.3453L148.986 72.7318Z" fill="black"/>
<path d="M157.625 74.54L160.482 63.3514L163.585 64.1438L160.728 75.3324L157.625 74.54ZM162.409 62.3071C161.948 62.1893 161.591 61.9353 161.339 61.545C161.093 61.1512 161.025 60.7381 161.135 60.3059C161.244 59.8786 161.501 59.5535 161.904 59.3306C162.314 59.1041 162.749 59.0498 163.211 59.1676C163.672 59.2854 164.026 59.5413 164.272 59.9351C164.524 60.3254 164.595 60.7342 164.486 61.1615C164.376 61.5937 164.116 61.9231 163.706 62.1496C163.303 62.3724 162.87 62.4249 162.409 62.3071Z" fill="black"/>
<path d="M168.628 70.6928L166.496 77.019L163.461 75.9958L167.15 65.0533L170.042 66.0284L169.391 67.959L169.52 68.0022C169.976 67.4475 170.552 67.0809 171.247 66.9026C171.943 66.7196 172.698 66.7649 173.51 67.0387C174.27 67.2949 174.876 67.6845 175.329 68.2075C175.782 68.7305 176.062 69.3535 176.167 70.0766C176.274 70.795 176.184 71.5792 175.897 72.4294L173.548 79.3967L170.514 78.3735L172.68 71.9476C172.91 71.2796 172.916 70.6995 172.695 70.2074C172.477 69.7106 172.063 69.3597 171.456 69.1548C171.047 69.0171 170.657 68.9832 170.284 69.0533C169.916 69.1249 169.587 69.2997 169.298 69.5777C169.015 69.8525 168.792 70.2242 168.628 70.6928Z" fill="black"/>
<path d="M179.03 86.7694C178.087 86.3372 177.338 85.8367 176.782 85.2679C176.229 84.7058 175.856 84.1129 175.662 83.4893C175.468 82.8656 175.439 82.251 175.573 81.6454L178.432 82.5173C178.418 82.7645 178.458 83.0199 178.552 83.2836C178.646 83.5473 178.814 83.8007 179.055 84.0437C179.299 84.2933 179.633 84.5152 180.057 84.7094C180.69 84.9997 181.283 85.0839 181.835 84.962C182.389 84.8467 182.832 84.4292 183.162 83.7093L184.042 81.7888L183.919 81.7324C183.658 81.9656 183.34 82.1535 182.966 82.2963C182.591 82.4391 182.166 82.5006 181.69 82.4808C181.214 82.4611 180.698 82.3238 180.142 82.0691C179.354 81.7078 178.72 81.1967 178.24 80.5357C177.767 79.8722 177.512 79.0745 177.476 78.1428C177.446 77.2086 177.698 76.1605 178.23 74.9987C178.775 73.8095 179.424 72.905 180.177 72.2851C180.93 71.6653 181.718 71.3044 182.542 71.2024C183.371 71.1025 184.17 71.2291 184.94 71.582C185.528 71.8514 185.974 72.1771 186.279 72.5593C186.585 72.9369 186.792 73.3291 186.897 73.7359C187.01 74.1403 187.067 74.514 187.07 74.857L187.179 74.9071L187.987 73.1439L190.878 74.4688L186.02 85.069C185.611 85.962 185.05 86.609 184.337 87.01C183.624 87.4109 182.811 87.5843 181.898 87.53C180.988 87.4824 180.032 87.2288 179.03 86.7694ZM182.067 80.3049C182.536 80.52 182.986 80.5855 183.416 80.5014C183.853 80.4148 184.258 80.1925 184.631 79.8345C185.012 79.474 185.343 78.9861 185.625 78.3711C185.907 77.756 186.064 77.1832 186.098 76.6528C186.134 76.1178 186.045 75.6498 185.832 75.2489C185.619 74.8479 185.277 74.5399 184.808 74.3248C184.33 74.1056 183.867 74.0506 183.42 74.16C182.975 74.2648 182.564 74.5064 182.186 74.8847C181.809 75.2631 181.483 75.7507 181.21 76.3476C180.932 76.9536 180.776 77.5162 180.742 78.0354C180.715 78.5521 180.808 79.0054 181.02 79.3951C181.24 79.7824 181.589 80.0857 182.067 80.3049Z" fill="black"/>
<path d="M189.5 176.735C184.3 185.135 178.567 184.695 175.4 183.528C170.282 190.182 160.737 195.373 152.9 196.561C152.866 197.706 152.758 198.864 152.586 200.028C163.308 208.028 173.4 228.028 175.4 232.028C177.4 236.028 177.4 243.028 176.4 248.528C175.4 254.028 157.5 257.5 153.9 255.528C151.767 254.359 149.736 251 149.9 248.528C150.7 236.528 144.877 227.528 141.865 224.528C140.171 226.996 138.564 229.055 137.287 230.528C140.132 243.688 141.133 252.454 138.4 267.028C136 279.828 126 282 121.5 282C109.5 283.5 106.234 279.028 105.9 276.528C103.711 269.961 104.369 259.796 105.783 251C103.119 252.415 98.1701 253.32 94.9004 253.788V271.528C95.5 277.5 90.5 281 86.9004 281.528H71.4004C67.8004 281.528 64 276.528 63.5364 273.528V249.917C62.0678 249.442 60.7447 248.971 59.6059 248.528C58.9525 254.839 57.7683 260.404 56.9004 263.528C54.9004 285.928 37.067 279.528 28.4004 273.528C20.4004 269.528 25.0671 254.195 28.4004 247.028C19.8991 231.88 18.399 218.932 20.6354 208.323C13.4004 205.028 5.90048 193.028 17.9005 185.028C17.2338 180.361 17.6004 172.028 28.4004 172.028V177L26 180.5L21.4004 183.028L17.9005 185.028C17.6861 189.528 17.6216 199.728 23.0788 200.528C28.3349 188.066 38.6839 179.791 46.4804 176.028C36.7361 161.34 39.5991 144.489 43.4004 136.028C59.086 111.245 79.6922 113.136 93.4004 119.849C131.9 71.028 174.4 105.028 186.9 129.028C187.4 129.028 186.4 136.028 206.9 130.028C223.3 125.228 221.067 108.695 217.9 101.028C217.734 98.1946 219.4 93.5279 227.4 97.5279C235.4 101.528 237.4 114.861 237.4 121.028C233.728 167.101 207.54 175.945 189.5 176.735Z" fill="#C1C3BC"/>
<path d="M102.9 126.028C100.42 123.907 97.1709 121.695 93.4004 119.849M93.4004 119.849C79.6922 113.136 59.086 111.245 43.4004 136.028C39.5991 144.489 36.7361 161.34 46.4804 176.028M93.4004 119.849C131.9 71.028 174.4 105.028 186.9 129.028C187.4 129.028 186.4 136.028 206.9 130.028C223.3 125.228 221.067 108.695 217.9 101.028C217.734 98.1946 219.4 93.5279 227.4 97.5279C235.4 101.528 237.4 114.861 237.4 121.028C231.9 190.028 175.9 175.528 172.4 175.528C169.2 175.528 184.167 177.235 189.5 176.735C184.3 185.135 178.567 184.695 175.4 183.528C170.282 190.182 160.737 195.373 152.9 196.561M46.4804 176.028C49.9804 181.303 56.9004 189.15 64.9004 192.028C81.5 198 85.5 201 95.9004 209.028C104.5 214 122.2 209.028 125.4 193.028C131.4 196.561 142.366 198.156 152.9 196.561M46.4804 176.028C38.6839 179.791 28.3349 188.066 23.0788 200.528M59.6059 248.528C58.9525 254.839 57.7683 260.404 56.9004 263.528C54.9004 285.928 37.067 279.528 28.4004 273.528C20.4004 269.528 25.0671 254.195 28.4004 247.028C19.8991 231.88 18.399 218.932 20.6354 208.323M59.6059 248.528C60.2072 242.72 59.359 235.279 58.4005 229.528C59.0375 234.361 60.9703 245.728 59.6059 248.528ZM59.6059 248.528C60.7447 248.971 62.0678 249.442 63.5364 249.917M137.287 230.528C140.132 243.688 141.133 252.454 138.4 267.028C136 279.828 126 282 121.5 282C109.5 283.5 106.234 279.028 105.9 276.528C102.3 265.728 106.4 245.195 108.9 237.028C107 242 106.283 248.833 105.783 251C103.119 252.415 98.1701 253.32 94.9004 253.788M137.287 230.528C137.009 229.24 136.213 225.91 135.9 224.528L137.287 230.528ZM137.287 230.528C138.564 229.055 140.171 226.996 141.865 224.528M152.9 196.561C152.866 197.706 152.758 198.864 152.586 200.028M141.865 224.528C144.877 227.528 150.7 236.528 149.9 248.528C149.736 251 151.767 254.359 153.9 255.528C157.5 257.5 175.4 254.028 176.4 248.528C177.4 243.028 177.4 236.028 175.4 232.028C173.4 228.028 163.308 208.028 152.586 200.028M141.865 224.528C146.276 218.101 151.279 208.898 152.586 200.028M63.5364 249.917V273.528C64 276.528 67.8004 281.528 71.4004 281.528C75.0004 281.528 83.2337 281.528 86.9004 281.528C90.5 281 95.5 277.5 94.9004 271.528C94.9004 268 94.9004 259.196 94.9004 253.788M63.5364 249.917C71.6988 252.555 84.3591 255.296 94.9004 253.788M20.6354 208.323C13.4004 205.028 5.90048 193.028 17.9005 185.028M20.6354 208.323C21.2167 205.566 22.0502 202.967 23.0788 200.528M17.9005 185.028C17.6861 189.528 17.6216 199.728 23.0788 200.528M17.9005 185.028C17.2338 180.361 17.6004 172.028 28.4004 172.028V177L26 180.5L21.4004 183.028L17.9005 185.028Z" stroke="black" stroke-width="3"/>
<path d="M151.9 131.528C148.7 130.328 146.734 137.028 147.4 140.528C149.234 138.861 150.9 137.028 152.825 136.028C154.229 135.299 155.9 133.028 151.9 131.528Z" fill="black" stroke="black"/>
<ellipse cx="160.9" cy="152.528" rx="6" ry="6.5" fill="black"/>
<path d="M224.4 33.5281C246.4 34.528 248.9 60.0281 231.9 70.5281L231.65 78.0281H223.9H216.9V70.5281C195.4 55.5281 207.9 33.5282 224.4 33.5281Z" fill="#FFCC01"/>
<path d="M223.9 68.0281V78.0281M223.9 68.0281C220.4 67.5281 220.9 64.5281 220.9 63.0281C220.9 61.8281 217.067 60.0281 215.9 59.5281M223.9 68.0281C225.067 67.6947 227.4 66.5281 227.4 64.5281C227.4 61.7281 228.734 61.0281 229.4 61.0281L230.9 59.5281L235.4 59.0281C237.734 57.5281 241 53.4281 235.4 49.0281C234.324 47.0285 231.316 44.0352 227.4 46.7297M223.9 78.0281H231.65L231.9 70.5281C248.9 60.0281 246.4 34.528 224.4 33.5281C207.9 33.5282 195.4 55.5281 216.9 70.5281V78.0281H223.9ZM227.4 46.7297C227.073 46.9548 226.74 47.2196 226.4 47.5281L227.4 46.7297ZM227.4 46.7297C225.4 44.8291 221.4 42.9281 221.4 50.5281V45.5281C219.4 44.8614 215.2 45.0281 214.4 51.0281M214.4 51.0281C212.234 52.0281 210 55.8281 214.4 59.0281M214.4 51.0281C216.234 51.6947 219.4 52.2281 217.4 49.0281M214.9 54.5281C215.932 55.1731 218.063 55.898 219.9 54.8943M221.9 53.5281H221.4C220.948 54.1608 220.437 54.6012 219.9 54.8943M219.9 54.8943L220.9 58.0281M224.4 56.0281C224.978 55.6642 225.857 54.8151 226.419 53.5281M226.9 50.0281C227.069 51.4159 226.828 52.5887 226.419 53.5281M224.4 51.5281L226.419 53.5281M233.9 47.5281C234.004 48.2521 233.902 49.6179 233.14 51.0281M230.9 53.5281C231.963 52.7692 232.675 51.8903 233.14 51.0281M230.9 48.5281C230.56 49.7378 230.533 51.9315 233.14 51.0281M235.4 52.5281C236.077 54.1947 236.274 57.2281 231.65 56.0281M221.9 59.5281C222.413 61.5281 224.033 64.3281 226.419 59.5281M226.9 58.0281C227.077 57.4996 227.43 56.7478 227.9 56.2743M229.4 56.0281C228.835 55.6508 228.321 55.8517 227.9 56.2743M227.9 56.2743C229.067 57.0255 231.2 58.6281 230.4 59.0281M194.4 62.5281L199.9 61.0281M187.4 54.5281H199.4M194.4 46.0281L199.9 48.0281M192.4 36.0281L202.4 42.0281M201.9 32.5281L206.4 37.0281M205.4 22.5281L211.9 32.5281M215.9 24.5281L217.4 30.5281M224.4 18.0281V30.0281M232.4 24.5281L230.4 30.5281M242.9 22.5281L236.4 33.5281M246.4 32.5281L241.9 37.0281M255.9 36.0281L245.4 42.5281M247.9 48.0281L254.4 46.0281M248.9 54.5281H261.4M247.9 61.0281L254.4 62.5281" stroke="black" stroke-width="2"/>
<path d="M231.5 84.5C230.5 94 217.5 92 216.9 84.5V78.0281H223.9H231.65L231.5 84.5Z" fill="white"/>
<path d="M219.9 82.5281H224.15H228.4M220.9 85.5281H227.4M216.9 84.5C217.5 92 230.5 94 231.5 84.5L231.65 78.0281H223.9H216.9V84.5Z" stroke="black" stroke-width="2"/>
</svg>
