<svg width="196" height="163" viewBox="0 0 196 163" fill="none" xmlns="http://www.w3.org/2000/svg">
<path d="M25.3733 2.08932L7.27734 25.1238L30.9921 43.7542L49.088 20.7197L25.3733 2.08932Z" fill="#AC8ECB"/>
<path d="M24.1377 10.2249L9.9209 28.3215L181.038 162.752L195.255 144.656L24.1377 10.2249Z" fill="#AC8ECB"/>
<path d="M14.2181 2.47L0 20.5659L17.2719 34.1365L31.4899 16.0406L14.2181 2.47Z" fill="#AC8ECB"/>
<path d="M22.8495 5.24236L4.75293 28.2747L44.0396 59.1424L62.1362 36.1101L22.8495 5.24236Z" fill="#B6BEC8"/>
<path d="M26.7468 0.30262L25.4531 1.94531L64.7057 32.8587L65.9994 31.216L26.7468 0.30262Z" fill="#B6BEC8"/>
<path d="M56.8699 26.3955C56.7179 27.8435 57.2849 29.3425 58.5189 30.3115C59.7509 31.2765 61.3409 31.4755 62.7129 30.9865L56.8699 26.3955Z" fill="#B6BEC8"/>
</svg>
