<svg width="208" height="168" viewBox="0 0 208 168" fill="none" xmlns="http://www.w3.org/2000/svg">
<path d="M168.54 0.414599L144.088 127.528L16.4926 105.564L16.9713 103.076L168.54 0.414599ZM122.703 95.9564L129.765 59.2446L85.9899 88.8947L122.703 95.9564Z" fill="#313F60"/>
<path d="M168.062 2.90293L143.61 130.018L16.4938 105.565L168.062 2.90293ZM122.224 98.4447L129.286 61.7329L85.5111 91.383L122.224 98.4447Z" fill="#BFDBF7"/>
<path d="M133.272 111.975L132.983 113.475L146.294 116.034L146.582 114.534L133.272 111.975Z" fill="#313F60"/>
<path d="M135.566 100.103L135.277 101.602L148.587 104.163L148.875 102.664L135.566 100.103Z" fill="#313F60"/>
<path d="M137.857 88.1623L137.568 89.6608L150.878 92.2218L151.166 90.7233L137.857 88.1623Z" fill="#313F60"/>
<path d="M140.159 76.2493L139.87 77.7488L153.18 80.3098L153.468 78.8104L140.159 76.2493Z" fill="#313F60"/>
<path d="M142.442 64.2931L142.153 65.7926L155.463 68.3537L155.751 66.8542L142.442 64.2931Z" fill="#313F60"/>
<path d="M144.749 52.3918L144.461 53.8912L157.771 56.4523L158.059 54.9528L144.749 52.3918Z" fill="#313F60"/>
<path d="M147.044 40.4628L146.756 41.9623L160.065 44.5233L160.354 43.0239L147.044 40.4628Z" fill="#313F60"/>
<path d="M149.316 28.4902L149.027 29.9896L162.337 32.5507L162.625 31.0512L149.316 28.4902Z" fill="#313F60"/>
<path d="M43.3647 96.9276L41.8652 96.639L39.3042 109.949L40.8036 110.237L43.3647 96.9276Z" fill="#313F60"/>
<path d="M55.2768 99.2258L53.7773 98.9373L51.2163 112.247L52.7158 112.535L55.2768 99.2258Z" fill="#313F60"/>
<path d="M67.2211 101.517L65.7217 101.228L63.1606 114.538L64.6601 114.827L67.2211 101.517Z" fill="#313F60"/>
<path d="M79.1763 103.822L77.6768 103.534L75.1174 116.844L76.617 117.133L79.1763 103.822Z" fill="#313F60"/>
<path d="M91.1021 106.116L89.6025 105.828L87.0432 119.138L88.5428 119.427L91.1021 106.116Z" fill="#313F60"/>
<path d="M103.05 108.406L101.551 108.117L98.9915 121.428L100.491 121.716L103.05 108.406Z" fill="#313F60"/>
<path d="M114.962 110.705L113.463 110.417L110.904 123.727L112.403 124.015L114.962 110.705Z" fill="#313F60"/>
<path d="M126.908 112.994L125.408 112.706L122.849 126.016L124.348 126.304L126.908 112.994Z" fill="#313F60"/>
<path d="M51.157 88.08C59.9729 81.4769 68.9283 75.0807 77.9333 68.757C86.9294 62.4206 96.0085 56.2052 105.103 50.015C114.224 43.8631 123.364 37.7376 132.585 31.7344C141.798 25.7175 151.061 19.7746 160.465 14.0405C151.651 20.6461 142.696 27.0432 133.69 33.3663C124.694 39.7027 115.614 45.9172 106.518 52.1049C97.3945 58.2544 88.2553 64.3798 79.0333 70.3821C69.8218 76.3987 60.5595 82.3421 51.157 88.08Z" fill="white"/>
</svg>
