<svg width="148" height="169" viewBox="0 0 148 169" fill="none" xmlns="http://www.w3.org/2000/svg">
<path d="M78.2784 12.2431L14.2702 40.4282L8.55415 42.9452L6.26835 43.9517L2.26758 45.7134L56.3737 168.588L60.3745 166.827L62.6603 165.82L68.3763 163.303L132.385 135.118C138.067 132.616 140.644 125.982 138.142 120.3L93.0963 18.0013C90.5941 12.3189 83.9603 9.74123 78.2784 12.2431Z" fill="#1F3A68" fill-opacity="0.48"/>
<path d="M82.4157 7.68919L18.4066 35.8746L12.6917 38.3911L10.4051 39.398L6.4043 41.1597L60.5104 164.035L64.5112 162.273L66.7978 161.266L72.5127 158.749L136.522 130.564C142.203 128.062 144.781 121.429 142.279 115.747L97.2333 13.4475C94.7312 7.76535 88.097 5.18751 82.4157 7.68919Z" fill="white"/>
<path d="M80.5874 5.0886L16.5786 33.2739L10.8632 35.7906L8.57711 36.7973L4.57715 38.5586L58.6827 161.432L62.6826 159.671L64.9687 158.664L70.6842 156.147L134.693 127.962C140.375 125.46 142.952 118.827 140.45 113.145L95.4044 10.8455C92.9031 5.16436 86.2693 2.58668 80.5874 5.0886Z" fill="#E6E7E8"/>
<path d="M79.0574 7.80893L15.0489 35.9941L9.33318 38.511L7.04684 39.5177L3.04688 41.2791L57.153 164.154L61.1527 162.393L63.439 161.386L69.1548 158.869L133.163 130.684C138.844 128.182 141.423 121.548 138.921 115.866L93.875 13.5672C91.3734 7.88524 84.7385 5.30738 79.0574 7.80893Z" fill="white"/>
<path d="M12.5062 36.4288L0.503906 41.7139L54.6097 164.588L66.612 159.303L12.5062 36.4288Z" fill="#1F3A68" fill-opacity="0.48"/>
<path d="M76.517 8.24363L12.5088 36.4287L66.6145 159.303L130.623 131.118C136.305 128.616 138.882 121.982 136.38 116.3L91.3344 14.0007C88.8327 8.31941 82.1989 5.74171 76.517 8.24363Z" fill="#BFDBF7"/>
<path d="M6.79264 38.9459L4.50684 39.9524L58.6126 162.826L60.8984 161.82L6.79264 38.9459Z" fill="#BFDBF7"/>
<path d="M108.95 81.7688L113.62 71.6673L106.688 55.9258L86.5258 91.643L108.95 81.7688Z" fill="#FAE3BB"/>
<path d="M113.624 71.6614L108.977 81.7122L105.868 74.9111L113.624 71.6614Z" fill="#F3D3BB"/>
<path d="M85.8197 91.9516L86.5272 91.6401L106.69 55.9229L75.9209 69.4714L85.8197 91.9516Z" fill="#FAE2BF"/>
<path d="M76.9018 38.7349L40.4707 55.4954L46.0392 67.5992L82.4702 50.8388L76.9018 38.7349Z" fill="#474747" fill-opacity="0.68"/>
<path d="M70.8758 9.36005L64.5811 12.1318L120.952 140.15L127.247 137.378L70.8758 9.36005Z" fill="#1F3A68" fill-opacity="0.48"/>
</svg>
