<svg width="190" height="229" viewBox="0 0 190 229" fill="none" xmlns="http://www.w3.org/2000/svg">
<path d="M137.705 0.302476L0 37.9119L52.1031 228.685L189.808 191.075L137.705 0.302476Z" fill="#F1F2F2"/>
<path d="M66.878 36.0656L65.4358 36.4594L30.7642 45.9288L29.6085 46.2445L15.0645 50.2167L21.2397 72.8271L21.778 74.7978L27.4135 95.4322L27.9524 97.4052L33.5866 118.035L34.1256 120.008L39.7611 140.642L40.3018 142.622L45.9338 163.243L46.4737 165.22L52.1096 185.855L52.6482 187.827L58.8216 210.431L73.3657 206.459L74.5214 206.143L109.193 196.674L110.635 196.28L174.75 178.77L168.576 156.166L168.037 154.194L162.402 133.558L161.862 131.581L156.23 110.96L155.689 108.98L150.053 88.3464L149.515 86.373L143.88 65.7434L143.341 63.7704L137.706 43.1361L137.168 41.1653L130.992 18.5549L66.878 36.0656ZM83.6799 104.353L49.8396 113.596L44.2053 92.9662L78.0457 83.7239L83.6799 104.353ZM89.8544 126.961L56.014 136.203L50.3785 115.569L84.2189 106.327L89.8544 126.961ZM56.5547 138.183L90.3951 128.941L96.0271 149.562L62.1867 158.804L56.5547 138.183ZM77.5068 81.7509L43.6665 90.9933L38.0309 70.3589L71.8712 61.1166L77.5068 81.7509ZM62.7267 160.781L96.567 151.539L102.203 172.174L68.3625 181.416L62.7267 160.781ZM31.8562 47.7507L65.6966 38.5084L71.3331 59.1462L37.4927 68.3886L31.8562 47.7507ZM17.3104 51.7234L29.5802 48.3723L35.2168 69.0102L22.9469 72.3613L17.3104 51.7234ZM23.4852 74.332L35.755 70.981L41.3906 91.6153L29.1208 94.9664L23.4852 74.332ZM29.6595 96.9389L41.9293 93.5878L47.5636 114.217L35.2938 117.568L29.6595 96.9389ZM35.8328 119.542L48.1027 116.191L53.7381 136.825L41.4683 140.176L35.8328 119.542ZM42.0089 142.156L54.2787 138.805L59.9107 159.426L47.6409 162.777L42.0089 142.156ZM48.1808 164.754L60.4507 161.403L66.0865 182.038L53.8167 185.389L48.1808 164.754ZM72.2621 204.65L59.9923 208.001L54.3553 187.361L66.6251 184.01L72.2621 204.65ZM108.378 194.786L74.5381 204.028L68.9011 183.389L102.741 174.146L108.378 194.786ZM172.498 177.274L110.372 194.241L104.735 173.602L166.861 156.634L172.498 177.274ZM166.322 154.662L104.196 171.629L98.5604 150.994L160.686 134.026L166.322 154.662ZM160.146 132.05L98.0206 149.018L92.3886 128.396L154.514 111.429L160.146 132.05ZM153.974 109.449L91.8479 126.416L86.2124 105.782L148.338 88.8149L153.974 109.449ZM147.799 86.8415L85.6735 103.809L80.0392 83.1794L142.165 66.2119L147.799 86.8415ZM141.626 64.2389L79.5003 81.2065L73.8648 60.5721L135.99 43.6046L141.626 64.2389ZM73.3266 58.6018L67.6901 37.9639L129.816 20.9964L135.452 41.6342L73.3266 58.6018Z" fill="#B4E1F7"/>
</svg>
