<svg width="74" height="57" viewBox="0 0 74 57" fill="none" xmlns="http://www.w3.org/2000/svg">
<path d="M33.2356 31.6145C32.8909 32.0784 8.78418 56.0162 8.78418 56.0162L36.9034 35.8655L33.2356 31.6145Z" fill="#313F60"/>
<path d="M52.25 10.7624L28.2702 23.3453L43.9298 42.4452L60.8312 20.7846L52.25 10.7624Z" fill="#AC8ECB"/>
<path d="M66.6893 25.054C64.1127 27.1671 58.2394 24.2646 53.5709 18.5711C48.9024 12.8776 47.2078 6.54911 49.7845 4.43601C52.3611 2.32291 58.2344 5.22548 62.9029 10.919C67.5716 16.6134 69.2671 22.9417 66.6893 25.054Z" fill="#313F60"/>
<path d="M67.7764 24.1653C65.1988 26.2786 59.3253 23.3751 54.6577 17.6814C49.9892 11.9879 48.2948 5.65939 50.8714 3.54629C53.448 1.43319 59.3213 4.33578 63.99 10.0302C68.6585 15.7237 70.353 22.0522 67.7764 24.1653Z" fill="#AC8ECB"/>
<path d="M43.7858 46.9175L23.8559 22.6092C25.7135 21.0859 28.4543 21.3574 29.9776 23.2151L44.3914 40.7948C45.9158 42.6533 45.6446 45.395 43.7858 46.9175Z" fill="#AC8ECB"/>
</svg>
