<svg width="30" height="30" viewBox="0 0 30 30" fill="none" xmlns="http://www.w3.org/2000/svg">
<path d="M5.74219 21.2188H5.74234C6.83178 21.2175 7.87623 20.7841 8.64659 20.0138C9.41694 19.2434 9.85028 18.199 9.85156 17.1095V17.1094C9.85156 16.2966 9.61055 15.5021 9.15901 14.8263C8.70747 14.1505 8.06567 13.6238 7.31478 13.3128C6.56389 13.0018 5.73763 12.9204 4.94049 13.079C4.14335 13.2375 3.41113 13.6289 2.83642 14.2036C2.26172 14.7783 1.87034 15.5105 1.71177 16.3077C1.55321 17.1048 1.63459 17.9311 1.94562 18.682C2.25665 19.4329 2.78336 20.0747 3.45914 20.5262C4.13493 20.9777 4.92943 21.2188 5.74219 21.2188ZM4.37931 15.0697C4.78269 14.8001 5.25694 14.6563 5.74209 14.6563C6.39235 14.6575 7.01564 14.9163 7.47544 15.3761C7.93528 15.836 8.19413 16.4593 8.19531 17.1096C8.19527 17.5947 8.0514 18.0689 7.78189 18.4723C7.51233 18.8757 7.12921 19.1901 6.68096 19.3758C6.23271 19.5614 5.73947 19.61 5.26361 19.5154C4.78775 19.4207 4.35064 19.1871 4.00757 18.844C3.66449 18.5009 3.43085 18.0638 3.3362 17.588C3.24155 17.1121 3.29013 16.6189 3.4758 16.1706C3.66147 15.7224 3.97589 15.3392 4.37931 15.0697Z" fill="#1F3A68" stroke="#1F3A68" stroke-width="0.25"/>
<path d="M1.39844 22.7342V22.7344V26.0156C1.39844 26.2353 1.48569 26.4459 1.64099 26.6012C1.79629 26.7565 2.00693 26.8438 2.22656 26.8438H9.25781C9.47744 26.8438 9.68808 26.7565 9.84338 26.6012C9.99869 26.4459 10.0859 26.2353 10.0859 26.0156V22.7344V22.7342C10.0846 21.8934 9.75007 21.0874 9.15555 20.4929C8.56102 19.8984 7.75504 19.5638 6.91425 19.5625H6.91406L4.57031 19.5625L4.57012 19.5625C3.72933 19.5638 2.92335 19.8984 2.32883 20.4929C1.7343 21.0874 1.39973 21.8934 1.39844 22.7342ZM8.42969 22.7344V25.1875H3.05469V22.7344C3.05469 22.3324 3.21437 21.9469 3.4986 21.6627C3.78284 21.3784 4.16834 21.2188 4.57031 21.2188H6.91406C7.31603 21.2188 7.70154 21.3784 7.98577 21.6627C8.27001 21.9469 8.42969 22.3324 8.42969 22.7344Z" fill="#1F3A68" stroke="#1F3A68" stroke-width="0.25"/>
<path d="M9.49126 24.0313C9.60824 24.0331 9.72426 24.0099 9.8316 23.9634C9.93931 23.9167 10.0358 23.8475 10.1146 23.7604L10.1146 23.7605L10.1159 23.7589L16.678 16.2594C16.6781 16.2593 16.6782 16.2592 16.6783 16.2591C16.8244 16.0938 16.8989 15.8773 16.8855 15.6571C16.872 15.4368 16.7716 15.2308 16.6063 15.0845C16.441 14.9382 16.2243 14.8636 16.004 14.877C15.7837 14.8905 15.5777 14.9909 15.4314 15.1562L15.4309 15.1567L8.86859 22.6566C8.86855 22.6566 8.86851 22.6567 8.86847 22.6567C8.76335 22.7764 8.69499 22.9239 8.67159 23.0815C8.64818 23.2392 8.67076 23.4002 8.73663 23.5454C8.80249 23.6905 8.90884 23.8135 9.04291 23.8997C9.17664 23.9857 9.33229 24.0314 9.49126 24.0313ZM9.49126 24.0313C9.49086 24.0312 9.49047 24.0312 9.49007 24.0312L9.49219 23.9063L9.49245 24.0313C9.49205 24.0313 9.49165 24.0313 9.49126 24.0313ZM4.80469 4.8125H27.7734C27.9931 4.8125 28.2037 4.72525 28.359 4.56995C28.5143 4.41464 28.6016 4.20401 28.6016 3.98438C28.6016 3.76474 28.5143 3.55411 28.359 3.3988C28.2037 3.2435 27.9931 3.15625 27.7734 3.15625H4.80469C4.58506 3.15625 4.37442 3.2435 4.21911 3.3988C4.06381 3.55411 3.97656 3.76474 3.97656 3.98438C3.97656 4.20401 4.06381 4.41464 4.21911 4.56995C4.37442 4.72525 4.58506 4.8125 4.80469 4.8125ZM17.9297 19.3438H27.7734C27.9931 19.3438 28.2037 19.2565 28.359 19.1012C28.5143 18.9459 28.6016 18.7353 28.6016 18.5156C28.6016 18.296 28.5143 18.0854 28.359 17.9301C28.2037 17.7747 27.9931 17.6875 27.7734 17.6875H17.9297C17.7101 17.6875 17.4994 17.7747 17.3441 17.9301C17.1888 18.0854 17.1016 18.296 17.1016 18.5156C17.1016 18.7353 17.1888 18.9459 17.3441 19.1012C17.4994 19.2565 17.7101 19.3438 17.9297 19.3438Z" fill="#1F3A68" stroke="#1F3A68" stroke-width="0.25"/>
<path d="M25.3129 19.1012C25.4682 19.2565 25.6788 19.3438 25.8984 19.3438C26.1181 19.3438 26.3287 19.2565 26.484 19.1012C26.6393 18.9459 26.7266 18.7353 26.7266 18.5156V3.98438C26.7266 3.76474 26.6393 3.55411 26.484 3.3988C26.3287 3.2435 26.1181 3.15625 25.8984 3.15625C25.6788 3.15625 25.4682 3.2435 25.3129 3.3988C25.1576 3.55411 25.0703 3.76474 25.0703 3.98438V18.5156C25.0703 18.7353 25.1576 18.9459 25.3129 19.1012ZM6.09411 11.1324C6.24942 11.2878 6.46005 11.375 6.67969 11.375C6.89932 11.375 7.10996 11.2878 7.26526 11.1324C7.42056 10.9771 7.50781 10.7665 7.50781 10.5469V3.98438C7.50781 3.76474 7.42056 3.55411 7.26526 3.3988C7.10996 3.2435 6.89932 3.15625 6.67969 3.15625C6.46006 3.15625 6.24942 3.2435 6.09411 3.3988C5.93881 3.55411 5.85156 3.76474 5.85156 3.98438V10.5469C5.85156 10.7665 5.93881 10.9771 6.09411 11.1324ZM11.8359 9.03125H16.9922C17.2118 9.03125 17.4225 8.944 17.5778 8.7887C17.7331 8.63339 17.8203 8.42276 17.8203 8.20312C17.8203 7.98349 17.7331 7.77286 17.5778 7.61755C17.4225 7.46225 17.2118 7.375 16.9922 7.375H11.8359C11.6163 7.375 11.4057 7.46225 11.2504 7.61755C11.0951 7.77286 11.0078 7.98349 11.0078 8.20312C11.0078 8.42276 11.0951 8.63339 11.2504 8.7887C11.4057 8.944 11.6163 9.03125 11.8359 9.03125ZM11.8359 12.7812H20.2734C20.4931 12.7812 20.7037 12.694 20.859 12.5387C21.0143 12.3834 21.1016 12.1728 21.1016 11.9531C21.1016 11.7335 21.0143 11.5229 20.859 11.3676C20.7037 11.2122 20.4931 11.125 20.2734 11.125H11.8359C11.6163 11.125 11.4057 11.2122 11.2504 11.3676C11.0951 11.5229 11.0078 11.7335 11.0078 11.9531C11.0078 12.1728 11.0951 12.3834 11.2504 12.5387C11.4057 12.694 11.6163 12.7812 11.8359 12.7812Z" fill="#1F3A68" stroke="#1F3A68" stroke-width="0.25"/>
</svg>
