<svg width="26" height="26" viewBox="0 0 26 26" fill="none" xmlns="http://www.w3.org/2000/svg">
<path d="M4.97656 18.4063H4.97671C5.92531 18.4051 6.83473 18.0278 7.50549 17.3571C8.17625 16.6863 8.55357 15.7769 8.55469 14.8283V14.8281C8.55469 14.1204 8.34484 13.4286 7.95167 12.8402C7.5585 12.2518 6.99967 11.7932 6.34585 11.5224C5.69204 11.2516 4.97259 11.1807 4.27851 11.3188C3.58442 11.4568 2.94686 11.7976 2.44645 12.298C1.94604 12.7984 1.60525 13.436 1.46719 14.1301C1.32913 14.8242 1.39999 15.5436 1.67081 16.1974C1.94163 16.8512 2.40024 17.4101 2.98866 17.8032C3.57708 18.1964 4.26888 18.4063 4.97656 18.4063ZM3.80466 13.0742C4.15152 12.8425 4.55931 12.7188 4.97647 12.7188C5.53561 12.7198 6.07155 12.9424 6.46693 13.3378C6.86234 13.7332 7.08493 14.2692 7.08594 14.8284C7.08589 15.2455 6.96218 15.6532 6.73044 16C6.49866 16.3469 6.16922 16.6173 5.78379 16.7769C5.39835 16.9366 4.97422 16.9784 4.56505 16.897C4.15587 16.8156 3.78001 16.6147 3.48501 16.3197C3.19001 16.0247 2.98911 15.6488 2.90772 15.2396C2.82633 14.8305 2.8681 14.4063 3.02776 14.0209C3.18741 13.6355 3.45777 13.306 3.80466 13.0742Z" fill="#888888" stroke="#888888" stroke-width="0.25"/>
<path d="M1.19531 19.7029V19.7031V22.5469C1.19531 22.7416 1.27268 22.9284 1.41041 23.0662C1.54813 23.2039 1.73492 23.2813 1.92969 23.2813H8.02344C8.21821 23.2813 8.405 23.2039 8.54272 23.0662C8.68044 22.9284 8.75781 22.7416 8.75781 22.5469V19.7031V19.7029C8.75669 18.9698 8.46497 18.2671 7.94659 17.7487C7.42822 17.2303 6.72547 16.9386 5.99238 16.9375H5.99219L3.96094 16.9375L3.96075 16.9375C3.22765 16.9386 2.52491 17.2303 2.00653 17.7487C1.48816 18.2671 1.19644 18.9698 1.19531 19.7029ZM7.28906 19.7031V21.8125H2.66406V19.7031C2.66406 19.3592 2.8007 19.0293 3.04391 18.7861C3.28712 18.5429 3.61698 18.4063 3.96094 18.4063H5.99219C6.33614 18.4063 6.66601 18.5429 6.90922 18.7861C7.15243 19.0293 7.28906 19.3592 7.28906 19.7031Z" fill="#888888" stroke="#888888" stroke-width="0.25"/>
<path d="M8.22563 20.8438C8.32934 20.8453 8.43219 20.8248 8.52735 20.7836C8.62288 20.7421 8.70844 20.6808 8.77831 20.6036L8.77832 20.6036L8.7797 20.602L14.4667 14.1025C14.4668 14.1024 14.4669 14.1023 14.467 14.1022C14.5965 13.9557 14.6626 13.7637 14.6507 13.5685C14.6388 13.3731 14.5497 13.1905 14.4032 13.0608C14.2566 12.9311 14.0645 12.8649 13.8691 12.8768C13.6737 12.8887 13.4911 12.9778 13.3614 13.1243L13.3609 13.1249L7.67359 19.6247C7.58031 19.7309 7.51965 19.8617 7.49889 20.0015C7.47813 20.1413 7.49816 20.2842 7.55657 20.4129C7.61498 20.5416 7.70928 20.6507 7.82817 20.7271C7.94673 20.8033 8.08471 20.8438 8.22563 20.8438ZM8.22563 20.8438C8.22524 20.8437 8.22484 20.8437 8.22445 20.8437L8.22656 20.7188L8.22682 20.8438C8.22642 20.8438 8.22603 20.8438 8.22563 20.8438ZM4.16406 4.1875H24.0703C24.2651 4.1875 24.4519 4.11013 24.5896 3.97241C24.7273 3.83468 24.8047 3.64789 24.8047 3.45313C24.8047 3.25836 24.7273 3.07157 24.5896 2.93384C24.4519 2.79612 24.2651 2.71875 24.0703 2.71875H4.16406C3.96929 2.71875 3.7825 2.79612 3.64478 2.93384C3.50706 3.07157 3.42969 3.25836 3.42969 3.45313C3.42969 3.64789 3.50706 3.83468 3.64478 3.97241C3.7825 4.11013 3.96929 4.1875 4.16406 4.1875ZM15.5391 16.7813H24.0703C24.2651 16.7813 24.4519 16.7039 24.5896 16.5662C24.7273 16.4284 24.8047 16.2416 24.8047 16.0469C24.8047 15.8521 24.7273 15.6653 24.5896 15.5276C24.4519 15.3899 24.2651 15.3125 24.0703 15.3125H15.5391C15.3443 15.3125 15.1575 15.3899 15.0198 15.5276C14.8821 15.6653 14.8047 15.8521 14.8047 16.0469C14.8047 16.2416 14.8821 16.4284 15.0198 16.5662C15.1575 16.7039 15.3443 16.7813 15.5391 16.7813Z" fill="#888888" stroke="#888888" stroke-width="0.25"/>
<path d="M21.926 16.5662C22.0638 16.7039 22.2505 16.7812 22.4453 16.7812C22.6401 16.7812 22.8269 16.7039 22.9646 16.5662C23.1023 16.4284 23.1797 16.2416 23.1797 16.0469V3.45312C23.1797 3.25836 23.1023 3.07157 22.9646 2.93384C22.8269 2.79612 22.6401 2.71875 22.4453 2.71875C22.2505 2.71875 22.0638 2.79612 21.926 2.93384C21.7883 3.07157 21.7109 3.25836 21.7109 3.45312V16.0469C21.7109 16.2416 21.7883 16.4284 21.926 16.5662ZM5.26978 9.65991C5.4075 9.79763 5.59429 9.875 5.78906 9.875C5.98383 9.875 6.17062 9.79763 6.30834 9.65991C6.44607 9.52218 6.52344 9.33539 6.52344 9.14062V3.45312C6.52344 3.25836 6.44607 3.07157 6.30834 2.93384C6.17062 2.79612 5.98383 2.71875 5.78906 2.71875C5.59429 2.71875 5.4075 2.79612 5.26978 2.93384C5.13206 3.07157 5.05469 3.25836 5.05469 3.45312V9.14062C5.05469 9.33539 5.13206 9.52218 5.26978 9.65991ZM10.2578 7.84375H14.7266C14.9213 7.84375 15.1081 7.76638 15.2458 7.62866C15.3836 7.49093 15.4609 7.30414 15.4609 7.10938C15.4609 6.91461 15.3836 6.72782 15.2458 6.59009C15.1081 6.45237 14.9213 6.375 14.7266 6.375H10.2578C10.063 6.375 9.87625 6.45237 9.73853 6.59009C9.60081 6.72782 9.52344 6.91461 9.52344 7.10938C9.52344 7.30414 9.60081 7.49093 9.73853 7.62866C9.87625 7.76638 10.063 7.84375 10.2578 7.84375ZM10.2578 11.0938H17.5703C17.7651 11.0938 17.9519 11.0164 18.0896 10.8787C18.2273 10.7409 18.3047 10.5541 18.3047 10.3594C18.3047 10.1646 18.2273 9.97782 18.0896 9.84009C17.9519 9.70237 17.7651 9.625 17.5703 9.625H10.2578C10.063 9.625 9.87625 9.70237 9.73853 9.84009C9.60081 9.97782 9.52344 10.1646 9.52344 10.3594C9.52344 10.5541 9.60081 10.7409 9.73853 10.8787C9.87625 11.0164 10.063 11.0938 10.2578 11.0938Z" fill="#888888" stroke="#888888" stroke-width="0.25"/>
</svg>
