<svg width="22" height="18" viewBox="0 0 22 18" fill="none" xmlns="http://www.w3.org/2000/svg">
<path d="M20.5 15.3025L13.8571 9.30249M8.14286 9.30249L1.50003 15.3025M1 4.30249L9.16492 10.0179C9.82609 10.4808 10.1567 10.7122 10.5163 10.8018C10.8339 10.881 11.1661 10.881 11.4837 10.8018C11.8433 10.7122 12.1739 10.4808 12.8351 10.0179L21 4.30249M5.8 17.3025H16.2C17.8802 17.3025 18.7202 17.3025 19.362 16.9755C19.9265 16.6879 20.3854 16.2289 20.673 15.6645C21 15.0227 21 14.1826 21 12.5025V6.10249C21 4.42233 21 3.58225 20.673 2.94052C20.3854 2.37603 19.9265 1.91709 19.362 1.62947C18.7202 1.30249 17.8802 1.30249 16.2 1.30249H5.8C4.11984 1.30249 3.27976 1.30249 2.63803 1.62947C2.07354 1.91709 1.6146 2.37603 1.32698 2.94052C1 3.58225 1 4.42233 1 6.10249V12.5025C1 14.1826 1 15.0227 1.32698 15.6645C1.6146 16.2289 2.07354 16.6879 2.63803 16.9755C3.27976 17.3025 4.11984 17.3025 5.8 17.3025Z" stroke="#1F3A68" stroke-linecap="round" stroke-linejoin="round"/>
</svg>
